<?xml version="1.0" encoding="utf-8"?>
<svg version="1.1" xmlns:xlink="http://www.w3.org/1999/xlink" width="29px" height="54px" xmlns="http://www.w3.org/2000/svg">
  <defs>
    <linearGradient gradientUnits="userSpaceOnUse" x1="-0.0036228983861684" y1="27.0002723064581" x2="29.0000005630257" y2="27.0002723064581" id="LinearGradient189">
      <stop id="Stop190" stop-color="#6764ad" offset="0" />
      <stop id="Stop191" stop-color="#5f69b1" offset="0.04" />
      <stop id="Stop192" stop-color="#407bbf" offset="0.21" />
      <stop id="Stop193" stop-color="#2789ca" offset="0.38" />
      <stop id="Stop194" stop-color="#1693d2" offset="0.57" />
      <stop id="Stop195" stop-color="#0b99d6" offset="0.76" />
      <stop id="Stop196" stop-color="#089bd8" offset="1" />
    </linearGradient>
  </defs>
  <g transform="matrix(1 0 0 1 -58 -1022 )">
    <path d="M 29 25.465762396321  C 29 25.465762396321  11.6574089218709 1.27860266126679  11.6574089218709 1.27860266126679  C 11.0478049724181 0.437870187698848  10.0568336609386 -0.0412751699870271  9.01878035873003 0.00279636447450227  C 9.01878035873003 0.00279636447450227  4.90479188580507 0.00279636447450227  4.90479188580507 0.00279636447450227  C 3.92663477016169 -0.0396222591613467  3.00883215336477 0.475228215263209  2.53570139470697 1.33176120496825  C 2.0711043740205 2.19647430776498  2.18104738701205 3.23838276463315  2.81233192447052 4.2023252219459  C 2.81233192447052 4.2023252219459  18.0624642908171 25.3665306973061  18.0624642908171 25.3665306973061  C 18.0624642908171 25.3665306973061  0.528358462382622 49.858467010295  0.528358462382622 49.858467010295  C -0.0777938727329461 50.6744057824027  -0.169818835762362 51.7627871316532  0.29074010111828 52.6687847506842  C 0.765097802792973 53.5240993042916  1.68207510995197 54.0384866913324  2.65983033840111 53.9977492810203  C 2.65983033840111 53.9977492810203  6.86957573742102 53.9977492810203  6.86957573742102 53.9977492810203  C 7.90926243851557 54.0149337219105  8.87359985936722 53.4574834929908  9.37698133720689 52.5482962613057  C 9.37698133720689 52.5482962613057  29 25.465762396321  29 25.465762396321  Z " fill-rule="nonzero" fill="url(#LinearGradient189)" stroke="none" transform="matrix(1 0 0 1 58 1022 )" />
  </g>
</svg>