<?xml version="1.0" encoding="utf-8"?>
<svg version="1.1" xmlns:xlink="http://www.w3.org/1999/xlink" width="80px" height="80px" xmlns="http://www.w3.org/2000/svg">
  <g transform="matrix(1 0 0 1 -41 -1010 )">
    <path d="M 0 12.197763945913  C 0 5.46112574016546  5.46112574016546 0  12.197763945913 0  C 12.197763945913 0  67.8022385583474 0  67.8022385583474 0  C 74.5388767640949 0  80 5.46112574016546  80 12.197763945913  C 80 12.197763945913  80 67.8022385583474  80 67.8022385583474  C 80 74.5388767640949  74.5388767640949 80  67.8022385583474 80  C 67.8022385583474 80  12.197763945913 80  12.197763945913 80  C 5.46112574016546 80  0 74.5388767640949  0 67.8022385583474  C 0 67.8022385583474  0 12.197763945913  0 12.197763945913  Z " fill-rule="nonzero" fill="#231f20" stroke="none" transform="matrix(1 0 0 1 41 1010 )" />
  </g>
</svg>