<?xml version="1.0" encoding="utf-8"?>
<svg version="1.1" xmlns:xlink="http://www.w3.org/1999/xlink" width="90px" height="90px" xmlns="http://www.w3.org/2000/svg">
  <defs>
    <filter x="37px" y="1007px" width="90px" height="90px" filterUnits="userSpaceOnUse" id="filter184">
      <feOffset dx="1" dy="2" in="SourceAlpha" result="shadowOffsetInner" />
      <feGaussianBlur stdDeviation="2.5" in="shadowOffsetInner" result="shadowGaussian" />
      <feComposite in2="shadowGaussian" operator="atop" in="SourceAlpha" result="shadowComposite" />
      <feColorMatrix type="matrix" values="0 0 0 0 0  0 0 0 0 0  0 0 0 0 0  0 0 0 0.501960784313725 0  " in="shadowComposite" />
    </filter>
    <g id="widget185">
      <path d="M 0 12.197763945913  C 0 5.46112574016546  5.46112574016546 0  12.197763945913 0  C 12.197763945913 0  67.8022385583474 0  67.8022385583474 0  C 74.5388767640949 0  80 5.46112574016546  80 12.197763945913  C 80 12.197763945913  80 67.8022385583474  80 67.8022385583474  C 80 74.5388767640949  74.5388767640949 80  67.8022385583474 80  C 67.8022385583474 80  12.197763945913 80  12.197763945913 80  C 5.46112574016546 80  0 74.5388767640949  0 67.8022385583474  C 0 67.8022385583474  0 12.197763945913  0 12.197763945913  Z " fill-rule="nonzero" fill="#000000" stroke="none" transform="matrix(1 0 0 1 41 1010 )" />
    </g>
  </defs>
  <g transform="matrix(1 0 0 1 -37 -1007 )">
    <use xlink:href="#widget185" filter="url(#filter184)" />
    <use xlink:href="#widget185" />
  </g>
</svg>